<mxfile host="app.diagrams.net" agent="Mozilla/5.0 (Macintosh; Intel Mac OS X 10_15_7) AppleWebKit/605.1.15 (KHTML, like Gecko) Version/16.6 Safari/605.1.15" version="26.0.6">
  <diagram name="Page-1" id="kCoj314UIxKeBubhFUw4">
    <mxGraphModel dx="1194" dy="797" grid="1" gridSize="10" guides="1" tooltips="1" connect="1" arrows="1" fold="1" page="1" pageScale="1" pageWidth="850" pageHeight="1100" math="0" shadow="0">
      <root>
        <mxCell id="0" />
        <mxCell id="1" parent="0" />
        <mxCell id="-m4q2zFRH0n8Yx4xbc76-1" value="" style="image;html=1;image=img/lib/clip_art/computers/Server_128x128.png" vertex="1" parent="1">
          <mxGeometry x="260" y="350" width="80" height="80" as="geometry" />
        </mxCell>
        <mxCell id="-m4q2zFRH0n8Yx4xbc76-2" value="Region" style="sketch=0;outlineConnect=0;gradientColor=none;html=1;whiteSpace=wrap;fontSize=12;fontStyle=0;shape=mxgraph.aws4.group;grIcon=mxgraph.aws4.group_region;strokeColor=#879196;fillColor=none;verticalAlign=top;align=left;spacingLeft=30;fontColor=#879196;dashed=1;" vertex="1" parent="1">
          <mxGeometry x="440" y="160" width="320" height="440" as="geometry" />
        </mxCell>
        <mxCell id="-m4q2zFRH0n8Yx4xbc76-3" value="Availability zone A" style="sketch=0;outlineConnect=0;gradientColor=none;html=1;whiteSpace=wrap;fontSize=12;fontStyle=0;shape=mxgraph.aws4.group;grIcon=mxgraph.aws4.group_availability_zone;strokeColor=#545B64;fillColor=none;verticalAlign=top;align=left;spacingLeft=30;fontColor=#545B64;dashed=1;" vertex="1" parent="1">
          <mxGeometry x="480" y="200" width="240" height="160" as="geometry" />
        </mxCell>
        <mxCell id="-m4q2zFRH0n8Yx4xbc76-4" value="Availability zone B" style="sketch=0;outlineConnect=0;gradientColor=none;html=1;whiteSpace=wrap;fontSize=12;fontStyle=0;shape=mxgraph.aws4.group;grIcon=mxgraph.aws4.group_availability_zone;strokeColor=#545B64;fillColor=none;verticalAlign=top;align=left;spacingLeft=30;fontColor=#545B64;dashed=1;" vertex="1" parent="1">
          <mxGeometry x="480" y="400" width="240" height="160" as="geometry" />
        </mxCell>
        <mxCell id="-m4q2zFRH0n8Yx4xbc76-5" value="" style="sketch=0;points=[[0,0,0],[0.25,0,0],[0.5,0,0],[0.75,0,0],[1,0,0],[0,1,0],[0.25,1,0],[0.5,1,0],[0.75,1,0],[1,1,0],[0,0.25,0],[0,0.5,0],[0,0.75,0],[1,0.25,0],[1,0.5,0],[1,0.75,0]];outlineConnect=0;fontColor=#232F3E;fillColor=#ED7100;strokeColor=#ffffff;dashed=0;verticalLabelPosition=bottom;verticalAlign=top;align=center;html=1;fontSize=12;fontStyle=0;aspect=fixed;shape=mxgraph.aws4.resourceIcon;resIcon=mxgraph.aws4.ec2;" vertex="1" parent="1">
          <mxGeometry x="490" y="241" width="78" height="78" as="geometry" />
        </mxCell>
        <mxCell id="-m4q2zFRH0n8Yx4xbc76-6" value="" style="sketch=0;points=[[0,0,0],[0.25,0,0],[0.5,0,0],[0.75,0,0],[1,0,0],[0,1,0],[0.25,1,0],[0.5,1,0],[0.75,1,0],[1,1,0],[0,0.25,0],[0,0.5,0],[0,0.75,0],[1,0.25,0],[1,0.5,0],[1,0.75,0]];outlineConnect=0;fontColor=#232F3E;fillColor=#ED7100;strokeColor=#ffffff;dashed=0;verticalLabelPosition=bottom;verticalAlign=top;align=center;html=1;fontSize=12;fontStyle=0;aspect=fixed;shape=mxgraph.aws4.resourceIcon;resIcon=mxgraph.aws4.ec2;" vertex="1" parent="1">
          <mxGeometry x="490" y="441" width="78" height="78" as="geometry" />
        </mxCell>
        <mxCell id="-m4q2zFRH0n8Yx4xbc76-7" value="" style="outlineConnect=0;dashed=0;verticalLabelPosition=bottom;verticalAlign=top;align=center;html=1;shape=mxgraph.aws3.volume;fillColor=#E05243;gradientColor=none;" vertex="1" parent="1">
          <mxGeometry x="640" y="241" width="52.5" height="75" as="geometry" />
        </mxCell>
        <mxCell id="-m4q2zFRH0n8Yx4xbc76-8" value="" style="outlineConnect=0;dashed=0;verticalLabelPosition=bottom;verticalAlign=top;align=center;html=1;shape=mxgraph.aws3.volume;fillColor=#E05243;gradientColor=none;" vertex="1" parent="1">
          <mxGeometry x="640" y="441" width="52.5" height="75" as="geometry" />
        </mxCell>
        <mxCell id="-m4q2zFRH0n8Yx4xbc76-9" value="" style="sketch=0;verticalLabelPosition=bottom;sketch=0;aspect=fixed;html=1;verticalAlign=top;strokeColor=none;fillColor=#000000;align=center;outlineConnect=0;pointerEvents=1;shape=mxgraph.citrix2.admins;" vertex="1" parent="1">
          <mxGeometry x="60" y="365" width="50" height="50" as="geometry" />
        </mxCell>
        <mxCell id="-m4q2zFRH0n8Yx4xbc76-10" value="" style="endArrow=classic;html=1;rounded=0;exitX=0.975;exitY=0.425;exitDx=0;exitDy=0;exitPerimeter=0;" edge="1" parent="1" source="-m4q2zFRH0n8Yx4xbc76-1">
          <mxGeometry width="50" height="50" relative="1" as="geometry">
            <mxPoint x="440" y="330" as="sourcePoint" />
            <mxPoint x="490" y="280" as="targetPoint" />
          </mxGeometry>
        </mxCell>
        <mxCell id="-m4q2zFRH0n8Yx4xbc76-11" value="" style="endArrow=classic;html=1;rounded=0;exitX=0.975;exitY=0.425;exitDx=0;exitDy=0;exitPerimeter=0;entryX=0;entryY=0.5;entryDx=0;entryDy=0;entryPerimeter=0;" edge="1" parent="1" target="-m4q2zFRH0n8Yx4xbc76-6">
          <mxGeometry width="50" height="50" relative="1" as="geometry">
            <mxPoint x="338" y="394" as="sourcePoint" />
            <mxPoint x="490" y="290" as="targetPoint" />
          </mxGeometry>
        </mxCell>
        <mxCell id="-m4q2zFRH0n8Yx4xbc76-13" value="" style="endArrow=classic;startArrow=classic;html=1;rounded=0;" edge="1" parent="1">
          <mxGeometry width="50" height="50" relative="1" as="geometry">
            <mxPoint x="120" y="390" as="sourcePoint" />
            <mxPoint x="250" y="390" as="targetPoint" />
          </mxGeometry>
        </mxCell>
        <mxCell id="-m4q2zFRH0n8Yx4xbc76-14" value="" style="endArrow=classic;html=1;rounded=0;" edge="1" parent="1" target="-m4q2zFRH0n8Yx4xbc76-7">
          <mxGeometry width="50" height="50" relative="1" as="geometry">
            <mxPoint x="568" y="280" as="sourcePoint" />
            <mxPoint x="610" y="230" as="targetPoint" />
          </mxGeometry>
        </mxCell>
        <mxCell id="-m4q2zFRH0n8Yx4xbc76-15" value="" style="endArrow=classic;html=1;rounded=0;" edge="1" parent="1">
          <mxGeometry width="50" height="50" relative="1" as="geometry">
            <mxPoint x="568" y="480.55" as="sourcePoint" />
            <mxPoint x="640" y="479.55" as="targetPoint" />
          </mxGeometry>
        </mxCell>
        <mxCell id="-m4q2zFRH0n8Yx4xbc76-16" value="US east 1" style="text;html=1;align=center;verticalAlign=middle;resizable=0;points=[];autosize=1;strokeColor=none;fillColor=none;" vertex="1" parent="1">
          <mxGeometry x="630" y="160" width="80" height="30" as="geometry" />
        </mxCell>
        <mxCell id="-m4q2zFRH0n8Yx4xbc76-19" value="US east 1a" style="text;html=1;align=center;verticalAlign=middle;resizable=0;points=[];autosize=1;strokeColor=none;fillColor=none;" vertex="1" parent="1">
          <mxGeometry x="630" y="200" width="80" height="30" as="geometry" />
        </mxCell>
        <mxCell id="-m4q2zFRH0n8Yx4xbc76-20" value="US east 1b" style="text;html=1;align=center;verticalAlign=middle;resizable=0;points=[];autosize=1;strokeColor=none;fillColor=none;" vertex="1" parent="1">
          <mxGeometry x="630" y="400" width="80" height="30" as="geometry" />
        </mxCell>
        <mxCell id="-m4q2zFRH0n8Yx4xbc76-21" value="Company&lt;div&gt;Stabilization System&lt;/div&gt;" style="text;html=1;align=center;verticalAlign=middle;resizable=0;points=[];autosize=1;strokeColor=none;fillColor=none;" vertex="1" parent="1">
          <mxGeometry x="215" y="433" width="130" height="40" as="geometry" />
        </mxCell>
        <mxCell id="-m4q2zFRH0n8Yx4xbc76-22" value="Company Stabilization&lt;div&gt;Devices&lt;/div&gt;&lt;div&gt;&lt;br&gt;&lt;/div&gt;" style="text;html=1;align=center;verticalAlign=middle;resizable=0;points=[];autosize=1;strokeColor=none;fillColor=none;" vertex="1" parent="1">
          <mxGeometry x="15" y="430" width="140" height="60" as="geometry" />
        </mxCell>
        <mxCell id="-m4q2zFRH0n8Yx4xbc76-23" value="computational&amp;nbsp;&lt;div&gt;Module A&lt;div&gt;&lt;br&gt;&lt;/div&gt;&lt;/div&gt;" style="text;html=1;align=center;verticalAlign=middle;resizable=0;points=[];autosize=1;strokeColor=none;fillColor=none;" vertex="1" parent="1">
          <mxGeometry x="479" y="319" width="100" height="60" as="geometry" />
        </mxCell>
        <mxCell id="-m4q2zFRH0n8Yx4xbc76-24" value="computational&amp;nbsp;&lt;div&gt;Module B&lt;div&gt;&lt;br&gt;&lt;/div&gt;&lt;/div&gt;" style="text;html=1;align=center;verticalAlign=middle;resizable=0;points=[];autosize=1;strokeColor=none;fillColor=none;" vertex="1" parent="1">
          <mxGeometry x="479" y="516" width="100" height="60" as="geometry" />
        </mxCell>
        <mxCell id="-m4q2zFRH0n8Yx4xbc76-25" value="Amazon&amp;nbsp;&lt;div&gt;EBS volume&lt;/div&gt;" style="text;html=1;align=center;verticalAlign=middle;resizable=0;points=[];autosize=1;strokeColor=none;fillColor=none;" vertex="1" parent="1">
          <mxGeometry x="620" y="316" width="90" height="40" as="geometry" />
        </mxCell>
        <mxCell id="-m4q2zFRH0n8Yx4xbc76-26" value="Amazon&amp;nbsp;&lt;div&gt;EBS volume&lt;/div&gt;" style="text;html=1;align=center;verticalAlign=middle;resizable=0;points=[];autosize=1;strokeColor=none;fillColor=none;" vertex="1" parent="1">
          <mxGeometry x="621.25" y="520" width="90" height="40" as="geometry" />
        </mxCell>
      </root>
    </mxGraphModel>
  </diagram>
</mxfile>
